M48
; DRILL file {KiCad 8.0.5} date 2024-10-21T22:08:55+1100
; FORMAT={-:-/ absolute / inch / decimal}
; #@! TF.CreationDate,2024-10-21T22:08:55+11:00
; #@! TF.GenerationSoftware,Kicad,Pcbnew,8.0.5
; #@! TF.FileFunction,Plated,1,2,PTH
FMAT,2
INCH
; #@! TA.AperFunction,Plated,PTH,ViaDrill
T1C0.0118
; #@! TA.AperFunction,Plated,PTH,ComponentDrill
T2C0.0315
; #@! TA.AperFunction,Plated,PTH,ComponentDrill
T3C0.0394
; #@! TA.AperFunction,Plated,PTH,ComponentDrill
T4C0.0709
%
G90
G05
T1
X3.9882Y-3.4843
X4.0079Y-2.7165
X4.0079Y-4.252
X4.7756Y-2.7165
X4.7756Y-3.4843
X4.7756Y-4.252
X5.5433Y-2.7165
X5.5433Y-3.4843
X5.5433Y-4.252
X6.311Y-2.7165
X6.311Y-3.4843
X6.311Y-4.252
X6.9803Y-3.7402
X6.9803Y-3.5039
X7.0197Y-3.189
X7.0394Y-3.9567
X7.2244Y-2.6181
X7.5906Y-2.4409
X7.5906Y-2.5394
X7.5906Y-2.6378
X7.5906Y-2.7362
T2
X3.7402Y-2.9102
X3.7402Y-3.3102
T3
X7.3528Y-3.4008
X7.3528Y-4.0008
X7.4528Y-4.0008
X7.5528Y-3.4008
X7.5528Y-4.0008
T4
X7.2028Y-3.7008
X7.7028Y-3.7008
M30
