M48
; DRILL file {KiCad 8.0.5} date 2024-10-21T22:08:55+1100
; FORMAT={-:-/ absolute / inch / decimal}
; #@! TF.CreationDate,2024-10-21T22:08:55+11:00
; #@! TF.GenerationSoftware,Kicad,Pcbnew,8.0.5
; #@! TF.FileFunction,NonPlated,1,2,NPTH
FMAT,2
INCH
; #@! TA.AperFunction,NonPlated,NPTH,ComponentDrill
T1C0.0669
; #@! TA.AperFunction,NonPlated,NPTH,ComponentDrill
T2C0.0866
; #@! TA.AperFunction,NonPlated,NPTH,ComponentDrill
T3C0.1181
; #@! TA.AperFunction,NonPlated,NPTH,ComponentDrill
T4C0.1575
%
G90
G05
T1
X4.0138Y-4.4713
X4.0146Y-2.9287
X4.0146Y-3.6988
X4.4138Y-4.4713
X4.4146Y-2.9287
X4.4146Y-3.6988
X4.786Y-4.4709
X4.7866Y-2.9276
X4.787Y-3.6984
X5.186Y-4.4709
X5.1866Y-2.9276
X5.187Y-3.6984
X5.5587Y-4.4717
X5.5598Y-2.9276
X5.5598Y-3.6988
X5.9587Y-4.4717
X5.9598Y-2.9276
X5.9598Y-3.6988
X6.3315Y-3.6988
X6.3319Y-2.9252
X6.3319Y-4.472
X6.7315Y-3.6988
X6.7319Y-2.9252
X6.7319Y-4.472
T2
X3.7323Y-2.4606
X3.7323Y-4.9409
X7.8661Y-2.4606
X7.8661Y-4.9409
T3
X4.0646Y-4.3713
X4.0654Y-2.8287
X4.0654Y-3.5988
X4.3146Y-4.2713
X4.3154Y-2.7287
X4.3154Y-3.4988
X4.8368Y-4.3709
X4.8374Y-2.8276
X4.8378Y-3.5984
X5.0868Y-4.2709
X5.0874Y-2.7276
X5.0878Y-3.4984
X5.6094Y-4.3717
X5.6106Y-2.8276
X5.6106Y-3.5988
X5.8594Y-4.2717
X5.8606Y-2.7276
X5.8606Y-3.4988
X6.3823Y-3.5988
X6.3827Y-2.8252
X6.3827Y-4.372
X6.6323Y-3.4988
X6.6327Y-2.7252
X6.6327Y-4.272
T4
X4.2146Y-4.4713
X4.2154Y-2.9287
X4.2154Y-3.6988
X4.9868Y-4.4709
X4.9874Y-2.9276
X4.9878Y-3.6984
X5.7594Y-4.4717
X5.7606Y-2.9276
X5.7606Y-3.6988
X6.5323Y-3.6988
X6.5327Y-2.9252
X6.5327Y-4.472
M30
